{"title":"Up in Smoke(1978)MP-4[DaScubaDude]","uid":12716272,"size":858244144,"categoryP":"video","categoryS":"movies","magnet":"?xt=urn:btih:4a6a43bc052a139807e5362bcd4b3ada94b7f91f&amp;dn=Up+in+Smoke%281978%29MP-4%5BDaScubaDude%5D&amp;tr=udp%3A%2F%2Ftracker.leechers-paradise.org%3A6969&amp;tr=udp%3A%2F%2Fzer0day.ch%3A1337&amp;tr=udp%3A%2F%2Fopen.demonii.com%3A1337&amp;tr=udp%3A%2F%2Ftracker.coppersurfer.tk%3A6969&amp;tr=udp%3A%2F%2Fexodus.desync.com%3A6969","seeders":0,"leechers":1,"uploader":"dascuba","files":1,"time":1446937130,"description":"Up in Smoke (1978)\r\nR  |  86 min  |  Comedy, Music  |  15 September 1978 (USA)\r\n7.0 Your rating:   -/10   Ratings: 7.0/10 from 27,179 users   \r\nReviews: 73 user | 34 critic\r\nTwo stoners unknowingly smuggle a van - made entirely of marijuana - from Mexico to L.A., with incompetent Sgt. Stedenko on their trail.\r\n\r\nDirectors: Lou Adler, Tommy Chong (uncredited)\r\nWriters: Tommy Chong, Cheech Marin\r\nStGeneral\r\nComplete name                            : C:Up in SmokeUPINSMOKE_SCE_Title1.mp4\r\nFormat                                   : MPEG-4\r\nFormat profile                           : Base Media\r\nCodec ID                                 : isom\r\nFile size                                : 818 MiB\r\nDuration                                 : 1h 25mn\r\nOverall bit rate                         : 1 334 Kbps\r\nMovie name                               : UPINSMOKE_SCE\r\nGenre                                    : Comedy\r\nWriting application                      : Lavf54.6.100\r\n\r\nVideo\r\nID                                       : 1\r\nFormat                                   : AVC\r\nFormat/Info                              : Advanced Video Codec\r\nFormat profile                           :   \r\nFormat settings, CABAC                   : No\r\nFormat settings, ReFrames                : 6 frames\r\nCodec ID                                 : avc1\r\nCodec ID/Info                            : Advanced Video Coding\r\nDuration                                 : 1h 25mn\r\nBit rate                                 : 1 200 Kbps\r\nWidth                                    : 720 pixels\r\nHeight                                   : 404 pixels\r\nDisplay aspect ratio                     : 16:9\r\nFrame rate mode                          : Constant\r\nFrame rate                               : 29.970 fps\r\nColor space                              : YUV\r\nChroma subsampling                       : 4:2:0\r\nBit depth                                : 8 bits\r\nScan type                                : Progressive\r\nBits/(Pixel*Frame)                       : 0.138\r\nStream size                              : 736 MiB (90%)\r\n\r\nAudio\r\nID                                       : 2\r\nFormat                                   : AAC\r\nFormat/Info                              : Advanced Audio Codec\r\nFormat profile                           : LC\r\nCodec ID                                 : 40\r\nDuration                                 : 1h 25mn\r\nBit rate mode                            : Constant\r\nBit rate                                 : 128 Kbps\r\nChannel(s)                               : 2 channels\r\nChannel positions                        : Front: L R\r\nSampling rate                            : 44.1 KHz\r\nCompression mode                         : Lossy\r\nStream size                              : 78.5 MiB (10%)\r\n\r\nars: Cheech Marin, Tommy Chong, Strother Martin","torrent":{"xt":"urn:btih:4a6a43bc052a139807e5362bcd4b3ada94b7f91f","amp;dn":"Up+in+Smoke%281978%29MP-4%5BDaScubaDude%5D","amp;tr":["udp%3A%2F%2Ftracker.leechers-paradise.org%3A6969","udp%3A%2F%2Fzer0day.ch%3A1337","udp%3A%2F%2Fopen.demonii.com%3A1337","udp%3A%2F%2Ftracker.coppersurfer.tk%3A6969","udp%3A%2F%2Fexodus.desync.com%3A6969"],"infoHash":"4a6a43bc052a139807e5362bcd4b3ada94b7f91f","infoHashBuffer":{"type":"Buffer","data":[74,106,67,188,5,42,19,152,7,229,54,43,205,75,58,218,148,183,249,31]},"announce":[],"urlList":[]}}